<?xml version="1.0" encoding="UTF-8" standalone="no"?>
<svg
   xmlns:dc="http://purl.org/dc/elements/1.1/"
   xmlns:cc="http://creativecommons.org/ns#"
   xmlns:rdf="http://www.w3.org/1999/02/22-rdf-syntax-ns#"
   xmlns:svg="http://www.w3.org/2000/svg"
   xmlns="http://www.w3.org/2000/svg"
   xmlns:sodipodi="http://sodipodi.sourceforge.net/DTD/sodipodi-0.dtd"
   xmlns:inkscape="http://www.inkscape.org/namespaces/inkscape"
   width="64"
   height="64"
   viewBox="0 0 64 64"
   fill="none"
   version="1.1"
   id="svg4931"
   sodipodi:docname="icon-circle.svg"
   inkscape:version="0.92.4 (5da689c313, 2019-01-14)">
  <metadata
     id="metadata4937">
    <rdf:RDF>
      <cc:Work
         rdf:about="">
        <dc:format>image/svg+xml</dc:format>
        <dc:type
           rdf:resource="http://purl.org/dc/dcmitype/StillImage" />
        <dc:title></dc:title>
      </cc:Work>
    </rdf:RDF>
  </metadata>
  <defs
     id="defs4935" />
  <sodipodi:namedview
     pagecolor="#ffffff"
     bordercolor="#666666"
     borderopacity="1"
     objecttolerance="10"
     gridtolerance="10"
     guidetolerance="10"
     inkscape:pageopacity="0"
     inkscape:pageshadow="2"
     inkscape:window-width="1366"
     inkscape:window-height="705"
     id="namedview4933"
     showgrid="false"
     inkscape:zoom="3.6875"
     inkscape:cx="32"
     inkscape:cy="42.847458"
     inkscape:window-x="-8"
     inkscape:window-y="121"
     inkscape:window-maximized="1"
     inkscape:current-layer="svg4931" />
  <path
     d="m 43.203473,25.469441 v 11.4314"
     id="path4923"
     inkscape:connector-curvature="0"
     style="stroke:#f88e33;stroke-width:1.5;stroke-linecap:round;stroke-linejoin:round;stroke-opacity:1" />
  <path
     fill-rule="evenodd"
     clip-rule="evenodd"
     d="M32 56.01V56.01C18.7396 56.01 7.98999 45.2603 7.98999 32V32C7.98999 18.7396 18.7396 7.98999 32 7.98999V7.98999C45.2603 7.98999 56.01 18.7396 56.01 32V32C56.01 45.2603 45.2603 56.01 32 56.01V56.01Z"
     stroke="#F67ACB"
     stroke-width="1.5"
     stroke-linecap="round"
     stroke-linejoin="round"
     id="path4925"
     style="stroke:#f88e33;stroke-opacity:0.75294119" />
  <path
     d="m 21.453942,26.011814 h -3.1746 c -1.4031,0.0014 -2.5397,1.1393 -2.5397,2.5424 v 6.3493 c 0,1.4026 1.137,2.5397 2.5397,2.5397 h 3.1746"
     id="path4927"
     inkscape:connector-curvature="0"
     style="stroke:#f28e33;stroke-width:1.5;stroke-linecap:round;stroke-linejoin:round;stroke-opacity:1" />
  <path
     d="m 32.598256,37.188941 h -2.0008 c -1.4734,0 -2.6678,-1.1944 -2.6678,-2.6678 v -6.6694 c 0,-1.4734 1.1944,-2.6678 2.6678,-2.6678 h 2.0008 c 1.4734,0 2.6678,1.1944 2.6678,2.6678 v 6.6694 c 0,1.4734 -1.1944,2.6678 -2.6678,2.6678 z"
     id="path4929"
     inkscape:connector-curvature="0"
     style="clip-rule:evenodd;fill-rule:evenodd;stroke:#f88e33;stroke-width:1.5;stroke-linecap:round;stroke-linejoin:round;stroke-opacity:1" />
  <path
     inkscape:connector-curvature="0"
     style="stroke:#f88e33;stroke-width:1.5;stroke-linecap:round;stroke-linejoin:round;stroke-opacity:1"
     d="m 43.203473,36.900841 h 3.1746 c 1.4031,-0.0014 2.5397,-1.1393 2.5397,-2.5424 v -6.3493 c 0,-1.4026 -1.137,-2.5397 -2.5397,-2.5397 h -3.1746"
     id="path4927-2" />
</svg>
