<?xml version="1.0" encoding="UTF-8" standalone="no"?>
<svg
   xmlns:dc="http://purl.org/dc/elements/1.1/"
   xmlns:cc="http://creativecommons.org/ns#"
   xmlns:rdf="http://www.w3.org/1999/02/22-rdf-syntax-ns#"
   xmlns:svg="http://www.w3.org/2000/svg"
   xmlns="http://www.w3.org/2000/svg"
   xmlns:sodipodi="http://sodipodi.sourceforge.net/DTD/sodipodi-0.dtd"
   xmlns:inkscape="http://www.inkscape.org/namespaces/inkscape"
   width="208"
   height="56"
   viewBox="0 0 208 56"
   fill="none"
   version="1.1"
   id="svg99"
   sodipodi:docname="teste de logo2.svg"
   inkscape:version="0.92.4 (5da689c313, 2019-01-14)">
  <metadata
     id="metadata105">
    <rdf:RDF>
      <cc:Work
         rdf:about="">
        <dc:format>image/svg+xml</dc:format>
        <dc:type
           rdf:resource="http://purl.org/dc/dcmitype/StillImage" />
        <dc:title></dc:title>
      </cc:Work>
    </rdf:RDF>
  </metadata>
  <defs
     id="defs103" />
  <sodipodi:namedview
     pagecolor="#ffffff"
     bordercolor="#666666"
     borderopacity="1"
     objecttolerance="10"
     gridtolerance="10"
     guidetolerance="10"
     inkscape:pageopacity="0"
     inkscape:pageshadow="2"
     inkscape:window-width="1366"
     inkscape:window-height="705"
     id="namedview101"
     showgrid="false"
     inkscape:zoom="1.8317308"
     inkscape:cx="205.01457"
     inkscape:cy="71.674541"
     inkscape:window-x="-8"
     inkscape:window-y="121"
     inkscape:window-maximized="1"
     inkscape:current-layer="svg99" />
  <rect
     x="0.50000113"
     y="1.0459298"
     width="207"
     height="55"
     id="rect93"
     style="fill:none;stroke:#fa9200;stroke-opacity:0.78431374;fill-opacity:1" />
  <path
     d="m 22.444916,23.772932 c 2.6361,2.6361 2.6361,6.9099 0,9.546 -2.636,2.636 -6.9099,2.636 -9.5459,0 -2.636,-2.6361 -2.636,-6.9099 0,-9.546 2.636,-2.636 6.9099,-2.636 9.5459,0 z"
     id="path95"
     inkscape:connector-curvature="0"
     style="clip-rule:evenodd;fill:#f8640c;fill-opacity:0.55555558;fill-rule:evenodd" />
  <path
     d="m 231.71453,90.700787 v -3.784381 h -3.1583 V 69.841995 h -1.39827 v 20.858792 z m 0.29701,-7.687955 c 0,4.529338 1.16359,7.985938 2.69874,7.985938 1.53516,0 2.69874,-3.4566 2.69874,-7.985938 0,-4.529338 -1.16358,-7.985938 -2.69874,-7.985938 -1.53515,0 -2.69874,3.4566 -2.69874,7.985938 z m 1.36893,0 c 0,-2.443458 0.5769,-4.290951 1.32981,-4.290951 0.76269,0 1.32982,1.847493 1.32982,4.290951 0,2.473257 -0.56713,4.32075 -1.32982,4.32075 -0.75291,0 -1.32981,-1.847493 -1.32981,-4.32075 z m 8.60651,-5.929857 c -0.39112,-1.281325 -0.93869,-2.056081 -1.6036,-2.056081 -1.3787,0 -2.42495,3.367206 -2.42495,7.747552 0,4.380346 1.04625,7.747552 2.42495,7.747552 0.66491,0 1.21248,-0.774756 1.6036,-2.056081 v 0.50657 c 0,2.532854 -0.61602,4.32075 -1.3787,4.32075 -0.5378,0 -0.92892,-0.923746 -1.16359,-2.383862 l -1.18315,1.90709 c 0.43024,2.443458 1.28093,4.14196 2.34674,4.14196 1.53515,0 2.69874,-3.4566 2.69874,-7.985938 v -13.64761 h -1.32004 z m -1.32981,9.773835 c -0.75291,0 -1.32982,-1.758099 -1.32982,-4.082364 0,-2.324265 0.57691,-4.052565 1.32982,-4.052565 0.76269,0 1.32981,1.7283 1.32981,4.052565 0,2.324265 -0.56712,4.082364 -1.32981,4.082364 z m 3.41009,-3.843978 c 0,4.529338 1.16359,7.985938 2.69874,7.985938 1.53515,0 2.69874,-3.4566 2.69874,-7.985938 0,-4.529338 -1.16359,-7.985938 -2.69874,-7.985938 -1.53515,0 -2.69874,3.4566 -2.69874,7.985938 z m 1.36893,0 c 0,-2.443458 0.5769,-4.290951 1.32981,-4.290951 0.76269,0 1.32982,1.847493 1.32982,4.290951 0,2.473257 -0.56713,4.32075 -1.32982,4.32075 -0.75291,0 -1.32981,-1.847493 -1.32981,-4.32075 z"
     id="path97"
     inkscape:connector-curvature="0"
     style="fill:#ffffff;stroke-width:1.06684566" />
  <text
     xml:space="preserve"
     style="font-style:normal;font-variant:normal;font-weight:bold;font-stretch:normal;font-size:41.88973999px;line-height:1.25;font-family:'Perpetua Titling MT';-inkscape-font-specification:'Perpetua Titling MT Bold';letter-spacing:0px;word-spacing:0px;fill:#fa932b;fill-opacity:1;stroke:none;stroke-width:1.0472436"
     x="36.068558"
     y="42.426151"
     id="text113"
     transform="scale(1.0472436,0.95488767)"><tspan
       sodipodi:role="line"
       id="tspan111"
       x="36.068558"
       y="42.426151"
       style="font-style:normal;font-variant:normal;font-weight:normal;font-stretch:semi-condensed;font-family:'Lucida Sans Typewriter';-inkscape-font-specification:'Lucida Sans Typewriter Semi-Condensed';fill:#fa932b;fill-opacity:1;stroke-width:1.0472436">Coding</tspan></text>
  <text
     xml:space="preserve"
     style="font-style:normal;font-weight:normal;font-size:40px;line-height:1.25;font-family:sans-serif;letter-spacing:0px;word-spacing:0px;fill:#000000;fill-opacity:1;stroke:none"
     x="125.01837"
     y="31.979004"
     id="text157"><tspan
       sodipodi:role="line"
       id="tspan155"
       x="125.01837"
       y="68.472214" /></text>
  <flowRoot
     xml:space="preserve"
     id="flowRoot159"
     style="fill:black;fill-opacity:1;stroke:none;font-family:sans-serif;font-style:normal;font-weight:normal;font-size:40px;line-height:1.25;letter-spacing:0px;word-spacing:0px"><flowRegion
       id="flowRegion161"><rect
         id="rect163"
         width="29.480314"
         height="95.538055"
         x="77.522308"
         y="-73.385826" /></flowRegion><flowPara
       id="flowPara165"></flowPara></flowRoot></svg>
